<?xml version="1.0" standalone="no"?><!DOCTYPE svg PUBLIC "-//W3C//DTD SVG 1.1//EN" "http://www.w3.org/Graphics/SVG/1.1/DTD/svg11.dtd"><svg t="1650186829160" class="icon" viewBox="0 0 1024 1024" version="1.1" xmlns="http://www.w3.org/2000/svg" p-id="1815" xmlns:xlink="http://www.w3.org/1999/xlink" width="200" height="200"><defs><style type="text/css">@font-face { font-family: feedback-iconfont; src: url("//at.alicdn.com/t/font_1031158_u69w8yhxdu.woff2?t=1630033759944") format("woff2"), url("//at.alicdn.com/t/font_1031158_u69w8yhxdu.woff?t=1630033759944") format("woff"), url("//at.alicdn.com/t/font_1031158_u69w8yhxdu.ttf?t=1630033759944") format("truetype"); }
</style></defs><path d="M129.560242 1.835125m11.010753 0l550.537634 0q11.010753 0 11.010753 11.010753l0 998.308244q0 11.010753-11.010753 11.010753l-550.537634 0q-11.010753 0-11.010753-11.010753l0-998.308244q0-11.010753 11.010753-11.010753Z" fill="#F6F6F6" p-id="1816"></path><path d="M258.019023 163.326165m-60.559139 0a60.55914 60.55914 0 1 0 121.118279 0 60.55914 60.55914 0 1 0-121.118279 0Z" fill="#D8D8D8" p-id="1817"></path><path d="M183.402823 969.562839c-8.92238-6.019211-5.373247-16.644588-1.721348-29.325305l106.551054-413.328975c3.483068-11.796186 19.397276-16.912516 30.936545-3.259183l92.802293 120.630137 166.702796-228.150137c7.498323-7.112946 22.924387-34.423283 45.437706-34.423283 12.978007 0 28.459125 18.351254 28.459126 31.16043V974.451613H198.86926c-5.156703 0-10.313405-1.629591-15.466437-4.888774z" fill="#D8D8D8" p-id="1818"></path></svg>